<svg width="170" height="81" fill="none" xmlns="http://www.w3.org/2000/svg">
    <rect x=".5" y=".5" width="169" height="80" rx="3.5" stroke="#AFB1B8" />
    <path
        d="M85.425 41.495a2.947 2.947 0 0 1-.605-1.988v-2.884c0-.883.2-1.555.602-2.015.4-.46 1.089-.688 2.065-.686.917 0 1.569.196 1.954.587.42.499.624 1.109.577 1.724v.678h-1.64v-.687c.005-.224-.01-.449-.048-.671a.65.65 0 0 0-.235-.399.948.948 0 0 0-.594-.156 1.005 1.005 0 0 0-.625.165.768.768 0 0 0-.272.44 3.33 3.33 0 0 0-.065.712v3.5c-.026.337.047.675.21.982a.77.77 0 0 0 .328.238c.133.052.28.071.424.055a.893.893 0 0 0 .58-.158.704.704 0 0 0 .245-.425 3.86 3.86 0 0 0 .051-.701v-.71h1.641v.648a2.64 2.64 0 0 1-.567 1.813c-.377.428-1.02.642-1.964.642s-1.658-.229-2.062-.704ZM92.257 41.525c-.415-.45-.622-1.103-.622-1.968v-3.033c0-.857.207-1.505.622-1.945.414-.44 1.107-.659 2.079-.657.965 0 1.654.22 2.069.657.414.44.625 1.088.625 1.945v3.032c0 .857-.21 1.514-.632 1.966-.421.451-1.107.677-2.062.677-.955 0-1.661-.229-2.08-.674Zm2.843-.728c.149-.281.216-.589.197-.897v-3.714a1.65 1.65 0 0 0-.193-.88.775.775 0 0 0-.335-.241.906.906 0 0 0-.433-.052.917.917 0 0 0-.434.052.786.786 0 0 0-.337.242c-.15.274-.217.576-.197.88v3.73c-.02.309.047.617.197.898.095.094.213.17.346.222a1.156 1.156 0 0 0 .843 0 1.02 1.02 0 0 0 .346-.222v-.018ZM99.004 34.01h1.766l1.328 5.596 1.359-5.595h1.719l.174 8.076h-1.271l-.136-5.613-1.311 5.613h-1.019l-1.359-5.634-.126 5.634h-1.284l.16-8.076ZM107.33 34.01h2.752c1.585 0 2.378.765 2.378 2.294 0 1.464-.835 2.196-2.504 2.194h-.937v3.59h-1.699l.01-8.077Zm2.351 3.452c.168.019.338.005.5-.039.161-.044.309-.117.434-.216.195-.273.281-.593.245-.912a2.526 2.526 0 0 0-.082-.733.581.581 0 0 0-.125-.222.698.698 0 0 0-.214-.162 1.76 1.76 0 0 0-.758-.13h-.659v2.414h.659ZM114.909 34.01h1.825l1.872 8.077h-1.584l-.37-1.862h-1.627l-.381 1.862h-1.606l1.871-8.076Zm1.56 5.28-.636-3.39-.635 3.39h1.271ZM120.117 34.01h1.189l2.276 4.608V34.01h1.41v8.076h-1.131l-2.29-4.81v4.81h-1.457l.003-8.076ZM128.294 39.008l-1.892-4.986h1.594l1.155 3.203 1.083-3.203h1.56l-1.869 4.986v3.08h-1.631v-3.08ZM88.048 45.618v.423h-1.386v3.282h-.581V46.04h-1.393v-.422h3.36ZM92.393 49.323h-.449a.2.2 0 0 1-.126-.035.194.194 0 0 1-.074-.085l-.401-.88H89.42l-.4.88a.242.242 0 0 1-.062.1.207.207 0 0 1-.126.035h-.448l1.698-3.704h.592l1.719 3.69Zm-2.813-1.375h1.603l-.68-1.508a2.699 2.699 0 0 1-.125-.349c-.024.07-.044.138-.064.197l-.062.155-.672 1.505ZM95.321 48.96c.106.004.213.004.32 0 .091-.009.182-.024.271-.045.083-.017.165-.04.245-.067.075-.027.15-.059.227-.091v-.833h-.679a.14.14 0 0 1-.092-.03.086.086 0 0 1-.026-.03.074.074 0 0 1-.008-.037v-.285h1.318v1.42a2.566 2.566 0 0 1-.716.302c-.14.036-.281.061-.425.077a5.16 5.16 0 0 1-.496.023 2.594 2.594 0 0 1-.856-.138 2.09 2.09 0 0 1-.68-.387 1.79 1.79 0 0 1-.438-.587 1.851 1.851 0 0 1-.156-.768 1.92 1.92 0 0 1 .153-.775c.097-.219.247-.419.438-.586.194-.167.425-.297.68-.384.29-.095.6-.142.91-.138.158 0 .316.01.472.032.138.02.274.05.404.094.12.038.233.088.34.147.104.057.203.122.296.193l-.163.229a.143.143 0 0 1-.055.05.172.172 0 0 1-.078.02.222.222 0 0 1-.105-.029 2.113 2.113 0 0 1-.167-.088 1.504 1.504 0 0 0-.227-.1 2.127 2.127 0 0 0-.313-.082 2.614 2.614 0 0 0-.431-.032 2.009 2.009 0 0 0-.656.103c-.189.065-.36.165-.5.293a1.29 1.29 0 0 0-.315.46 1.732 1.732 0 0 0 0 1.235c.074.175.19.333.34.467.139.127.308.227.495.293.217.064.445.089.673.073ZM100.736 48.9h1.855v.423h-2.422v-3.705h.581l-.014 3.282ZM104.521 49.323h-.581v-3.705h.581v3.705ZM106.681 45.636a.28.28 0 0 1 .089.068l2.483 2.792a.97.97 0 0 1 0-.132V45.604h.506v3.72h-.292a.277.277 0 0 1-.126-.021.322.322 0 0 1-.091-.07l-2.48-2.79v2.88h-.486v-3.705h.302c.033 0 .065.007.095.018ZM114.036 45.618v.408h-2.058v1.223h1.668v.393h-1.668v1.264h2.058v.408h-2.656v-3.696h2.656ZM53.162 22.742l25.795 6.324v22.158l-25.795-6.32V22.741Zm-1.655-1.888V45.98l29.1 7.135V27.992l-29.1-7.138Z"
        fill="#AFB1B8" />
    <path d="M67.104 64.78 38 57.637V32.514l29.104 7.139v25.126Z" fill="#AFB1B8" />
    <path
        d="m51.99 22.458 25.458 6.244-10.826 9.35-25.463-6.247 10.83-9.347Zm-.483-1.604L38 32.514l29.104 7.14 13.504-11.662-29.1-7.138ZM68.741 63.366l11.867-10.248-11.867-2.912v13.16Z"
        fill="#AFB1B8" />
</svg>