<svg fill="none" xmlns="http://www.w3.org/2000/svg">


    <defs>
        <g id="cliente1">

            <path 
                d="m70 21.087 7.008 6.634L64 27.713v32.188h34V47.594l7 6.627V21.087H70Zm27.692 25.728-19.87-18.81h19.87v18.81Zm-6.169 8.378H69.38V33.544h1.565v20.182h20.578v1.466ZM74.61 64.186l-.818 1.685-.818-1.685h-.686l1.194 2.246v1.309h.62v-1.309l1.192-2.246h-.684Zm1.028 3.555.288-.828h1.377l.29.828h.645l-1.345-3.555h-.555l-1.342 3.555h.642Zm.976-2.8.515 1.474h-1.03l.515-1.475Zm3.257 1.389a.807.807 0 0 0-.134.451c0 .3.105.543.315.73.211.186.493.279.844.279.352 0 .655-.096.909-.286l.2.237h.688l-.522-.618c.205-.28.308-.639.308-1.077h-.516c0 .24-.05.457-.148.652l-.687-.81.242-.176a1.34 1.34 0 0 0 .369-.371.785.785 0 0 0 .112-.41.732.732 0 0 0-.249-.564.895.895 0 0 0-.635-.23c-.286 0-.514.082-.683.244-.17.162-.254.381-.254.66 0 .114.027.231.08.354.056.122.153.27.29.444-.263.189-.44.352-.529.49Zm1.604.786a.906.906 0 0 1-.561.2.585.585 0 0 1-.425-.154.533.533 0 0 1-.159-.4c0-.19.098-.36.293-.508l.076-.054.776.916Zm-.637-1.575c-.168-.207-.252-.378-.252-.515 0-.119.035-.217.103-.295a.348.348 0 0 1 .276-.118.37.37 0 0 1 .266.1c.07.066.105.145.105.237a.44.44 0 0 1-.151.344l-.076.062-.271.185Zm5.786 1.931c.244-.213.384-.51.42-.888h-.615c-.033.254-.11.435-.232.544-.122.109-.305.164-.547.164-.265 0-.467-.101-.606-.303-.136-.202-.205-.495-.205-.88v-.314c.004-.38.077-.666.22-.862.145-.197.352-.295.62-.295.231 0 .406.057.525.17.12.113.195.297.225.552h.615c-.04-.389-.178-.69-.418-.903-.239-.213-.555-.32-.947-.32-.291 0-.548.07-.771.208a1.346 1.346 0 0 0-.51.59 2.081 2.081 0 0 0-.179.887v.332c.005.327.066.614.183.862.118.247.284.438.498.573.217.134.467.2.75.2.405 0 .73-.105.974-.317Zm3.63-.498c.12-.264.181-.57.181-.918v-.197a2.148 2.148 0 0 0-.185-.911 1.356 1.356 0 0 0-.52-.6c-.224-.14-.48-.21-.77-.21-.29 0-.546.07-.771.212-.223.14-.396.342-.52.608a2.174 2.174 0 0 0-.183.918v.2c.002.34.063.64.185.9.124.261.298.462.523.604.226.14.483.21.771.21.292 0 .549-.07.772-.21.224-.142.397-.344.517-.606Zm-.661-2.01c.15.21.224.513.224.907v.185c0 .4-.074.705-.222.913-.146.209-.356.313-.63.313a.738.738 0 0 1-.634-.32c-.152-.213-.227-.515-.227-.906v-.205c.003-.382.08-.678.229-.886a.73.73 0 0 1 .628-.315c.273 0 .484.105.632.315Z" />
        </g>
    </defs>
    <defs>
        <g id="cliente2">

            <path 
                d="M82.114 20.021h-.137a17.43 17.43 0 0 0-.63-.022h-.455c-.397 0-.802.01-1.204.03a.628.628 0 0 0-.091 0 28.276 28.276 0 0 0-10.516 2.683l-.433.208v22.142l1.012-.344c.888-.305 1.834-.58 2.813-.834a34.334 34.334 0 0 1 8.095-1.075v2.909c-.362.002-.713.012-1.065.03h-.084a32.36 32.36 0 0 0-6.228.956 31.626 31.626 0 0 0-7.42 2.892V21.199a29.725 29.725 0 0 1 7.785-3.166 29.793 29.793 0 0 1 7.336-.946h.427c.511.013 1.01.036 1.478.071 1.233.087 2.456.282 3.655.582v2.864a22.626 22.626 0 0 0-3.614-.54c-.247-.021-.494-.043-.724-.043Zm5.039 2.927c.635.049 1.292.072 1.958.072a31.473 31.473 0 0 0 7.713-.99 31.767 31.767 0 0 0 7.417-2.893v27.89a29.809 29.809 0 0 1-7.786 3.166 29.938 29.938 0 0 1-7.337.944 22.4 22.4 0 0 1-5.565-.657V22.41c.43.098.873.19 1.323.266.739.125 1.518.216 2.277.272Zm14.194.216-1.012.341c-.93.313-1.87.593-2.813.842a34.268 34.268 0 0 1-8.406 1.078c-.66 0-1.267-.018-1.854-.056l-.807-.053V48.093l.693.06c.642.057 1.305.085 1.973.085a26.884 26.884 0 0 0 6.62-.857 27.746 27.746 0 0 0 5.173-1.86l.433-.208V23.164Z" />
            <path
                d="M67.737 59.3a1.492 1.492 0 0 0-1.126-.456 1.676 1.676 0 0 0-.65.122 1.464 1.464 0 0 0-.832.842c-.08.2-.119.413-.116.628v3.794a1.79 1.79 0 0 0 .149.778c.09.195.219.368.38.509.151.127.329.22.52.27.185.051.376.078.567.078.211.002.42-.043.612-.132a1.601 1.601 0 0 0 .96-1.465v-.424h-.993v.338a.88.88 0 0 1-.058.338.607.607 0 0 1-.144.214.697.697 0 0 1-.415.145.504.504 0 0 1-.465-.204.898.898 0 0 1-.132-.508v-3.538c-.006-.196.036-.39.122-.567a.507.507 0 0 1 .485-.229.527.527 0 0 1 .443.214.806.806 0 0 1 .164.509v.328h.982v-.387a1.79 1.79 0 0 0-.121-.664 1.563 1.563 0 0 0-.332-.534ZM73.629 59.256a1.765 1.765 0 0 0-1.128-.417c-.202.001-.403.037-.592.107a1.56 1.56 0 0 0-.908.842c-.1.231-.15.482-.145.735v3.638c-.006.256.043.51.145.745.09.196.22.37.384.51.152.14.33.249.524.32a1.711 1.711 0 0 0 1.72-.32c.158-.143.285-.316.374-.51.102-.234.151-.489.144-.745v-3.639a1.77 1.77 0 0 0-.144-.734 1.641 1.641 0 0 0-.374-.532Zm-.463 4.905a.656.656 0 0 1-.197.527.726.726 0 0 1-.934 0 .65.65 0 0 1-.197-.527v-3.639a.653.653 0 0 1 .197-.526.726.726 0 0 1 .934 0 .653.653 0 0 1 .197.526v3.64ZM81.367 65.786v-6.888h-.953l-1.253 3.646h-.017l-1.263-3.646h-.943v6.888h.984v-4.19h.017l.964 2.962h.491l.971-2.962h.018v4.19h.984ZM86.958 59.38c-.151-.17-.343-.299-.556-.376a2.184 2.184 0 0 0-.714-.106h-1.462v6.888h.981v-2.69h.506c.307.014.611-.05.886-.188a1.43 1.43 0 0 0 .539-.527c.113-.183.19-.387.225-.6.038-.259.056-.52.053-.783.01-.33-.023-.661-.096-.984a1.467 1.467 0 0 0-.362-.633Zm-.506 2.101a.866.866 0 0 1-.091.359.553.553 0 0 1-.253.241 1.007 1.007 0 0 1-.463.087h-.448v-2.342h.506a.941.941 0 0 1 .443.086.555.555 0 0 1 .23.255c.054.12.083.251.086.383v.458c0 .16.01.326 0 .473h-.01ZM91.608 58.898h-.805l-1.518 6.888h.982l.288-1.48h1.338l.289 1.48h.981l-1.555-6.888Zm-.906 4.47.483-2.497h.018l.48 2.497h-.981ZM97.95 63.048h-.018l-1.482-4.15h-.944v6.888h.981v-4.142h.02l1.5 4.142h.924v-6.888h-.981v4.15ZM103.948 58.898l-.79 2.738h-.02l-.789-2.738h-1.04l1.348 3.977v2.911h.982v-2.911l1.348-3.977h-1.039Z" />
        </g>
    </defs>
    <defs>
        <g id="cliente3">
            <path
                d="M68.406 63.188a.133.133 0 0 1 .085.034l.218.208c-.17.169-.379.304-.614.396-.275.1-.571.149-.87.142-.28.005-.558-.04-.817-.133a1.794 1.794 0 0 1-.616-.374 1.673 1.673 0 0 1-.398-.578 1.925 1.925 0 0 1-.14-.742 1.725 1.725 0 0 1 .573-1.322c.186-.163.409-.291.654-.376.269-.09.555-.136.843-.133a2.27 2.27 0 0 1 .782.12c.216.082.415.195.587.335l-.183.222a.175.175 0 0 1-.047.04.124.124 0 0 1-.073.017.177.177 0 0 1-.08-.023l-.097-.06-.137-.075a1.555 1.555 0 0 0-.43-.133 1.902 1.902 0 0 0-.325-.024 1.761 1.761 0 0 0-.605.1c-.18.063-.341.158-.474.28-.136.128-.241.28-.309.445a1.498 1.498 0 0 0-.111.587c-.004.203.034.406.111.597a1.3 1.3 0 0 0 .303.443c.125.12.28.215.453.275.178.064.369.096.561.095.112.001.223-.005.333-.019a1.316 1.316 0 0 0 .72-.306.17.17 0 0 1 .103-.038ZM74.704 62.14c.004.252-.046.502-.147.738a1.594 1.594 0 0 1-.41.572 1.89 1.89 0 0 1-.645.375 2.654 2.654 0 0 1-1.658 0 1.912 1.912 0 0 1-.64-.376 1.677 1.677 0 0 1-.415-.578 1.922 1.922 0 0 1 0-1.476c.093-.216.234-.413.415-.58.182-.159.4-.282.64-.363a2.61 2.61 0 0 1 1.658 0c.242.085.461.214.644.376.179.165.319.36.411.571.101.238.151.489.147.742Zm-.572 0a1.565 1.565 0 0 0-.104-.591 1.219 1.219 0 0 0-.752-.723 1.918 1.918 0 0 0-1.205 0 1.298 1.298 0 0 0-.461.28 1.191 1.191 0 0 0-.294.443 1.738 1.738 0 0 0 0 1.184 1.209 1.209 0 0 0 .755.72c.388.127.816.127 1.205 0 .175-.061.333-.156.46-.277.131-.129.23-.28.292-.443.073-.19.108-.391.104-.592ZM79.001 62.762l.058.132c.021-.047.04-.09.062-.132.021-.045.045-.088.071-.13l1.393-2.201c.028-.038.052-.062.08-.069a.376.376 0 0 1 .114-.012h.412v3.58h-.488V61.186a.974.974 0 0 1 0-.124L79.3 63.295a.203.203 0 0 1-.082.081.245.245 0 0 1-.12.03h-.079a.242.242 0 0 1-.12-.03.2.2 0 0 1-.081-.081l-1.443-2.246V63.922h-.471V60.35h.411a.377.377 0 0 1 .115.012c.034.015.06.039.076.069l1.423 2.203c.028.04.052.083.071.128ZM84.244 62.584v1.34H83.7V60.35h1.216c.23-.004.459.023.679.078.176.044.34.12.48.223a.922.922 0 0 1 .272.35c.065.146.096.302.093.458a.992.992 0 0 1-.395.815c-.14.107-.304.188-.483.237a2.307 2.307 0 0 1-.657.082l-.66-.01Zm0-.384h.66c.144.002.286-.017.423-.054a.922.922 0 0 0 .305-.154.686.686 0 0 0 .25-.538.604.604 0 0 0-.054-.291.689.689 0 0 0-.19-.244 1.173 1.173 0 0 0-.734-.192h-.66V62.2ZM91.573 63.93h-.43a.205.205 0 0 1-.12-.034.224.224 0 0 1-.072-.083l-.37-.864h-1.862l-.385.864a.204.204 0 0 1-.19.116h-.432l1.636-3.58h.567l1.658 3.58Zm-2.7-1.33h1.539l-.65-1.456c-.049-.11-.09-.222-.122-.337l-.063.187c-.019.057-.04.11-.06.152l-.643 1.454ZM93.929 60.367c.032.015.06.037.082.064l2.385 2.698V60.35h.488v3.58h-.272a.264.264 0 0 1-.112-.022.297.297 0 0 1-.087-.066l-2.383-2.696a.974.974 0 0 1 0 .123V63.93h-.488v-3.58h.289a.26.26 0 0 1 .098.018ZM100.903 62.506v1.421h-.545v-1.421L98.85 60.35h.488a.196.196 0 0 1 .117.03c.03.024.055.051.074.081l.943 1.391c.038.06.071.114.098.166.028.052.05.102.069.151l.071-.153a1.21 1.21 0 0 1 .092-.164l.93-1.4a.348.348 0 0 1 .071-.076.182.182 0 0 1 .117-.035h.494l-1.511 2.165ZM78.731 54.343c.238.026.478.047.72.066 3.68-1.43 6.791-3.77 8.948-6.728 2.156-2.958 3.261-6.403 3.177-9.904l-4.054-3.522c.824 3.727.438 7.58-1.114 11.128s-4.21 6.65-7.677 8.96Z" />
            <path
                d="m77.284 54.18.109.018c3.704-2.302 6.528-5.516 8.106-9.227 1.579-3.711 1.84-7.749.75-11.59l-5.775-5.017c2.335 4.124 3.275 8.74 2.71 13.31-.564 4.57-2.61 8.906-5.9 12.505ZM96.868 41.914c-.981 3.846-3.364 7.315-6.794 9.892a21.625 21.625 0 0 1-3.229 2.013c2.794-.713 5.362-1.974 7.505-3.686 2.144-1.712 3.807-3.829 4.86-6.187l-2.342-2.032Z" />
            <path
                d="m95.95 41.347-3.335-2.897c-.064 3.303-1.145 6.531-3.13 9.348-1.986 2.818-4.804 5.122-8.16 6.673h.016c.748 0 1.495-.04 2.238-.116 3.138-1.113 5.909-2.883 8.068-5.153 2.158-2.27 3.636-4.968 4.302-7.855ZM77.766 26.248l-3.978-3.461c-3.556 1.194-6.614 3.293-8.775 6.022-2.16 2.73-3.322 5.962-3.333 9.274.013 3.66 1.431 7.212 4.03 10.093 2.597 2.881 6.227 4.927 10.314 5.814 3.648-3.862 5.785-8.634 6.098-13.623.313-4.99-1.213-9.935-4.356-14.12ZM105.14 40.814c-.014-4.342-2.006-8.503-5.54-11.574-3.534-3.07-8.324-4.801-13.322-4.813-2.31-.003-4.6.368-6.753 1.092l24.355 21.16a14.342 14.342 0 0 0 1.26-5.865Z" />

        </g>

    </defs>
    <defs>
        <g id="cliente4">
            <path
                d="M56.146 35.19h-.003c-2.398 0-4.342 1.727-4.342 3.858v.003c0 2.131 1.944 3.859 4.342 3.859h.003c2.398 0 4.342-1.728 4.342-3.859v-.003c0-2.13-1.944-3.858-4.342-3.858ZM88.195 33.956c-.007-2.96-1.333-5.797-3.688-7.89-2.355-2.093-5.547-3.272-8.877-3.279-3.332.005-6.525 1.184-8.882 3.277-2.356 2.094-3.683 4.931-3.69 7.892V50.28s25.134-2.488 25.137-16.32v-.003ZM43 55.636c.006 2.06.93 4.034 2.568 5.49 1.638 1.457 3.859 2.278 6.176 2.284 2.317-.006 4.537-.827 6.176-2.283 1.638-1.456 2.562-3.429 2.568-5.488V44.281S43 46.014 43 55.636Zm8.744 2.035c-.453 0-.895-.119-1.272-.343a2.108 2.108 0 0 1-.843-.913 1.826 1.826 0 0 1-.13-1.175c.088-.395.306-.758.626-1.042.32-.285.728-.479 1.172-.557a2.558 2.558 0 0 1 1.324.115c.418.154.776.415 1.027.75.252.335.386.728.386 1.13a1.84 1.84 0 0 1-.172.782 2.037 2.037 0 0 1-.496.662c-.212.19-.465.34-.744.444a2.541 2.541 0 0 1-.878.155v-.008ZM67.73 54.028v4.266h-.879v-4.266h.88Zm1.7 1.823v.685h-1.94v-.685h1.94Zm.204-1.823v.689H67.49v-.689h2.145Zm4.014 2.034v.202c0 .324-.044.615-.132.873a1.92 1.92 0 0 1-.372.659c-.16.18-.351.317-.574.413a1.83 1.83 0 0 1-.735.143c-.268 0-.513-.047-.736-.143a1.648 1.648 0 0 1-.574-.413 1.93 1.93 0 0 1-.378-.66 2.696 2.696 0 0 1-.132-.872v-.203c0-.326.044-.617.132-.873.088-.257.212-.477.372-.659.162-.181.354-.32.574-.416.223-.095.468-.143.736-.143.27 0 .514.048.735.143.223.096.414.235.574.416.162.182.287.402.375.66.09.255.135.546.135.873Zm-.888.202v-.208c0-.227-.02-.426-.061-.598a1.295 1.295 0 0 0-.182-.434.785.785 0 0 0-.293-.263.838.838 0 0 0-.395-.091c-.149 0-.28.03-.396.09a.792.792 0 0 0-.29.264 1.338 1.338 0 0 0-.178.434 2.593 2.593 0 0 0-.062.598v.208c0 .224.02.423.061.597.042.172.102.318.182.437.08.117.178.206.293.267.115.06.247.09.396.09.148 0 .28-.03.395-.09a.788.788 0 0 0 .29-.267c.078-.12.138-.265.179-.437.04-.173.061-.373.061-.597Zm3.742.914a.565.565 0 0 0-.035-.205.387.387 0 0 0-.124-.17 1.089 1.089 0 0 0-.254-.155 3.587 3.587 0 0 0-.425-.159 5.377 5.377 0 0 1-.551-.21 2.265 2.265 0 0 1-.457-.273 1.23 1.23 0 0 1-.31-.366 1.01 1.01 0 0 1-.112-.484c0-.178.04-.339.117-.483.078-.147.188-.272.328-.375.141-.106.307-.187.498-.243.194-.057.406-.085.636-.085.315 0 .589.056.823.17.235.113.416.268.545.465.131.198.197.423.197.677h-.873a.659.659 0 0 0-.08-.328.535.535 0 0 0-.234-.226.835.835 0 0 0-.392-.081.908.908 0 0 0-.381.07.507.507 0 0 0-.229.184.455.455 0 0 0-.076.258c0 .072.018.138.053.197a.592.592 0 0 0 .164.163c.072.051.16.1.266.144.106.045.228.089.367.132.232.07.436.15.612.237a1.9 1.9 0 0 1 .445.296c.12.11.21.233.27.372.06.139.09.296.09.472a1.024 1.024 0 0 1-.422.87c-.136.102-.3.179-.489.231-.189.053-.4.08-.635.08a2.41 2.41 0 0 1-.624-.083 1.894 1.894 0 0 1-.56-.254 1.286 1.286 0 0 1-.398-.434c-.1-.176-.15-.384-.15-.624h.882c0 .133.02.245.062.337a.563.563 0 0 0 .172.223.744.744 0 0 0 .27.123c.105.025.22.038.346.038a.939.939 0 0 0 .375-.065.463.463 0 0 0 .293-.436Zm3.383-3.15v4.266h-.876v-4.266h.876Zm1.313 0v.689h-3.48v-.689h3.48Zm3.363 3.58v.686h-2.27v-.686h2.27Zm-1.983-3.58v4.266h-.88v-4.266h.88Zm1.687 1.738v.668h-1.974v-.668h1.974Zm.293-1.738v.689h-2.267v-.689h2.267Zm.516 0h1.59c.327 0 .607.05.842.147.236.098.418.242.544.433.127.192.19.427.19.707 0 .228-.038.424-.116.588a1.103 1.103 0 0 1-.325.407 1.685 1.685 0 0 1-.49.258l-.278.147h-1.383l-.006-.686h1.029a.804.804 0 0 0 .383-.082.538.538 0 0 0 .229-.228.705.705 0 0 0 .079-.34.771.771 0 0 0-.076-.355.514.514 0 0 0-.232-.228.855.855 0 0 0-.39-.08h-.711v3.578h-.88v-4.266Zm2.385 4.266-.973-1.901.929-.006.984 1.866v.04h-.94Zm4.614-1.52h-1.087v-.686h1.087a.892.892 0 0 0 .41-.082.526.526 0 0 0 .231-.234.858.858 0 0 0 0-.691.591.591 0 0 0-.23-.265.76.76 0 0 0-.411-.1h-.782v3.578h-.88v-4.266h1.662c.334 0 .62.06.858.182.24.12.424.284.551.495.127.211.19.452.19.724 0 .275-.063.513-.19.715-.127.2-.31.356-.55.465-.239.11-.525.164-.86.164Zm5.068.834v.686h-2.27v-.686h2.27Zm-1.983-3.58v4.266h-.879v-4.266h.879Zm1.687 1.738v.668h-1.974v-.668h1.974Zm.293-1.738v.689h-2.267v-.689h2.267Zm2.482 0v4.266h-.876v-4.266h.876Zm1.312 0v.689h-3.48v-.689h3.48Zm3.364 3.58v.686h-2.271v-.686h2.271Zm-1.984-3.58v4.266h-.879v-4.266h.879ZM104 55.766v.668h-1.975v-.668H104Zm.293-1.738v.689h-2.268v-.689h2.268Zm.515 0h1.591c.326 0 .607.05.841.147.236.098.418.242.545.433.127.192.19.427.19.707 0 .228-.039.424-.117.588a1.096 1.096 0 0 1-.325.407 1.696 1.696 0 0 1-.489.258l-.279.147h-1.382l-.006-.686h1.028a.806.806 0 0 0 .384-.082.54.54 0 0 0 .228-.228.702.702 0 0 0 .079-.34.769.769 0 0 0-.076-.355.516.516 0 0 0-.231-.228.858.858 0 0 0-.39-.08h-.712v3.578h-.879v-4.266Zm2.385 4.266-.973-1.901.929-.006.984 1.866v.04h-.94Zm3.68-1.116a.574.574 0 0 0-.035-.205.396.396 0 0 0-.123-.17 1.108 1.108 0 0 0-.255-.155 3.62 3.62 0 0 0-.425-.159 5.345 5.345 0 0 1-.551-.21 2.264 2.264 0 0 1-.457-.273 1.24 1.24 0 0 1-.311-.366 1.011 1.011 0 0 1-.111-.484 1 1 0 0 1 .117-.483c.078-.147.188-.272.328-.375a1.56 1.56 0 0 1 .499-.243c.193-.057.405-.085.635-.085.315 0 .589.056.824.17.234.113.416.268.544.465.131.198.197.423.197.677h-.873a.666.666 0 0 0-.079-.328.535.535 0 0 0-.235-.226.832.832 0 0 0-.392-.081.905.905 0 0 0-.381.07.508.508 0 0 0-.229.184.452.452 0 0 0-.076.258c0 .072.018.138.053.197a.595.595 0 0 0 .164.163c.072.051.161.1.266.144.106.045.228.089.367.132.232.07.436.15.612.237.178.088.326.187.445.296.119.11.209.233.27.372.06.139.091.296.091.472 0 .185-.036.351-.109.498-.072.146-.177.27-.313.372-.137.102-.3.179-.489.231-.19.053-.402.08-.636.08a2.41 2.41 0 0 1-.624-.083 1.898 1.898 0 0 1-.56-.254 1.277 1.277 0 0 1-.398-.434c-.1-.176-.15-.384-.15-.624h.882c0 .133.021.245.062.337a.557.557 0 0 0 .173.223.743.743 0 0 0 .269.123c.106.025.221.038.346.038a.94.94 0 0 0 .375-.065.46.46 0 0 0 .293-.436Z" />

        </g>

    </defs>
    <defs>
        <g id="cliente5">
            <path
                d="M58.757 58.822c.244.276.373.622.367.977a1.43 1.43 0 0 1-.131.676 1.557 1.557 0 0 1-.438.558 2.627 2.627 0 0 1-1.651.45H54v-6.19h2.844a2.593 2.593 0 0 1 1.576.41c.184.141.33.32.425.52.096.202.139.42.127.64.016.34-.1.676-.33.946-.221.246-.526.416-.866.484.385.064.733.252.98.53Zm-3.406-.934h1.216c.276.018.55-.055.773-.206a.738.738 0 0 0 .207-.275.68.68 0 0 0 .054-.33.701.701 0 0 0-.055-.329.76.76 0 0 0-.203-.276 1.255 1.255 0 0 0-.796-.209H55.35v1.625Zm2.108 2.374a.777.777 0 0 0 .224-.284.711.711 0 0 0 .063-.345.722.722 0 0 0-.066-.35.788.788 0 0 0-.228-.285 1.338 1.338 0 0 0-.826-.224h-1.275v1.703h1.292c.29.015.578-.06.816-.215ZM64.57 61.484l-1.581-2.42h-.595v2.42h-1.361v-6.192h2.577a2.699 2.699 0 0 1 1.793.527c.36.336.578.778.613 1.248a1.86 1.86 0 0 1-.421 1.314 2.147 2.147 0 0 1-1.229.629l1.685 2.474h-1.48Zm-2.176-3.264h1.113c.773 0 1.16-.312 1.16-.937a.852.852 0 0 0-.063-.376.917.917 0 0 0-.221-.32 1.282 1.282 0 0 0-.876-.251h-1.126l.013 1.884ZM72.01 60.238h-2.712l-.479 1.246h-1.427l2.49-6.122h1.543l2.481 6.122H72.48l-.469-1.246Zm-.363-.938-.991-2.613-.991 2.613h1.982ZM81.322 61.484h-1.35l-3.03-4.21v4.21h-1.348v-6.192h1.348l3.03 4.235v-4.235h1.35v6.192ZM89.033 60.002c-.28.467-.705.847-1.223 1.092a4.287 4.287 0 0 1-1.9.39h-2.404v-6.192h2.405a4.376 4.376 0 0 1 1.9.381c.516.24.943.616 1.222 1.08.278.504.423 1.06.423 1.625 0 .564-.145 1.12-.423 1.624Zm-1.546-.148a2.16 2.16 0 0 0 .597-1.478c0-.542-.212-1.066-.597-1.477a2.488 2.488 0 0 0-1.692-.527h-.938v4.008h.938a2.489 2.489 0 0 0 1.692-.526ZM72.856 20.854s17.439 6.028 17.069 14.75V50.36s-17.426-6.031-17.063-14.754l-.006-14.751ZM105.46 46.905c3.294-2.075 7.103-3.36 11.08-3.739v-4.618c-4.582 1.617-8.469 4.549-11.08 8.357Z" />
            <path
                d="M103.482 48.296c2.695-4.97 7.368-8.805 13.058-10.716V24.272S91.705 32.858 92.23 45.28v21.006s1.107-.384 2.848-1.104c0-.672 0-1.349.08-2.03.513-5.767 3.507-11.11 8.324-14.857Z" />
            <path
                d="M101.12 56.1c.13-1.457.421-2.898.869-4.301-3 3.235-4.816 7.25-5.193 11.479-.037.399-.057.798-.067 1.21a74.704 74.704 0 0 0 4.777-2.305c-.44-2.001-.57-4.049-.386-6.083ZM102.107 56.176a19.041 19.041 0 0 0 .308 5.508c6.785-3.718 14.409-9.462 14.115-16.403v-.605c-4.848.497-9.383 2.437-12.91 5.523a19.293 19.293 0 0 0-1.513 5.977Z" />
        </g>
    </defs>
    <defs>
        <g id="cliente6">
            <path
                d="M85.425 41.495a2.947 2.947 0 0 1-.605-1.988v-2.884c0-.883.2-1.555.602-2.015.4-.46 1.089-.688 2.065-.686.917 0 1.569.196 1.954.587.42.499.624 1.109.577 1.724v.678h-1.64v-.687c.005-.224-.01-.449-.048-.671a.65.65 0 0 0-.235-.399.948.948 0 0 0-.594-.156 1.005 1.005 0 0 0-.625.165.768.768 0 0 0-.272.44 3.33 3.33 0 0 0-.065.712v3.5c-.026.337.047.675.21.982a.77.77 0 0 0 .328.238c.133.052.28.071.424.055a.893.893 0 0 0 .58-.158.704.704 0 0 0 .245-.425 3.86 3.86 0 0 0 .051-.701v-.71h1.641v.648a2.64 2.64 0 0 1-.567 1.813c-.377.428-1.02.642-1.964.642s-1.658-.229-2.062-.704ZM92.257 41.525c-.415-.45-.622-1.103-.622-1.968v-3.033c0-.857.207-1.505.622-1.945.414-.44 1.107-.659 2.079-.657.965 0 1.654.22 2.069.657.414.44.625 1.088.625 1.945v3.032c0 .857-.21 1.514-.632 1.966-.421.451-1.107.677-2.062.677-.955 0-1.661-.229-2.08-.674Zm2.843-.728c.149-.281.216-.589.197-.897v-3.714a1.65 1.65 0 0 0-.193-.88.775.775 0 0 0-.335-.241.906.906 0 0 0-.433-.052.917.917 0 0 0-.434.052.786.786 0 0 0-.337.242c-.15.274-.217.576-.197.88v3.73c-.02.309.047.617.197.898.095.094.213.17.346.222a1.156 1.156 0 0 0 .843 0 1.02 1.02 0 0 0 .346-.222v-.018ZM99.004 34.01h1.766l1.328 5.596 1.359-5.595h1.719l.174 8.076h-1.271l-.136-5.613-1.311 5.613h-1.019l-1.359-5.634-.126 5.634h-1.284l.16-8.076ZM107.33 34.01h2.752c1.585 0 2.378.765 2.378 2.294 0 1.464-.835 2.196-2.504 2.194h-.937v3.59h-1.699l.01-8.077Zm2.351 3.452c.168.019.338.005.5-.039.161-.044.309-.117.434-.216.195-.273.281-.593.245-.912a2.526 2.526 0 0 0-.082-.733.581.581 0 0 0-.125-.222.698.698 0 0 0-.214-.162 1.76 1.76 0 0 0-.758-.13h-.659v2.414h.659ZM114.909 34.01h1.825l1.872 8.077h-1.584l-.37-1.862h-1.627l-.381 1.862h-1.606l1.871-8.076Zm1.56 5.28-.636-3.39-.635 3.39h1.271ZM120.117 34.01h1.189l2.276 4.608V34.01h1.41v8.076h-1.131l-2.29-4.81v4.81h-1.457l.003-8.076ZM128.294 39.008l-1.892-4.986h1.594l1.155 3.203 1.083-3.203h1.56l-1.869 4.986v3.08h-1.631v-3.08ZM88.048 45.618v.423h-1.386v3.282h-.581V46.04h-1.393v-.422h3.36ZM92.393 49.323h-.449a.2.2 0 0 1-.126-.035.194.194 0 0 1-.074-.085l-.401-.88H89.42l-.4.88a.242.242 0 0 1-.062.1.207.207 0 0 1-.126.035h-.448l1.698-3.704h.592l1.719 3.69Zm-2.813-1.375h1.603l-.68-1.508a2.699 2.699 0 0 1-.125-.349c-.024.07-.044.138-.064.197l-.062.155-.672 1.505ZM95.321 48.96c.106.004.213.004.32 0 .091-.009.182-.024.271-.045.083-.017.165-.04.245-.067.075-.027.15-.059.227-.091v-.833h-.679a.14.14 0 0 1-.092-.03.086.086 0 0 1-.026-.03.074.074 0 0 1-.008-.037v-.285h1.318v1.42a2.566 2.566 0 0 1-.716.302c-.14.036-.281.061-.425.077a5.16 5.16 0 0 1-.496.023 2.594 2.594 0 0 1-.856-.138 2.09 2.09 0 0 1-.68-.387 1.79 1.79 0 0 1-.438-.587 1.851 1.851 0 0 1-.156-.768 1.92 1.92 0 0 1 .153-.775c.097-.219.247-.419.438-.586.194-.167.425-.297.68-.384.29-.095.6-.142.91-.138.158 0 .316.01.472.032.138.02.274.05.404.094.12.038.233.088.34.147.104.057.203.122.296.193l-.163.229a.143.143 0 0 1-.055.05.172.172 0 0 1-.078.02.222.222 0 0 1-.105-.029 2.113 2.113 0 0 1-.167-.088 1.504 1.504 0 0 0-.227-.1 2.127 2.127 0 0 0-.313-.082 2.614 2.614 0 0 0-.431-.032 2.009 2.009 0 0 0-.656.103c-.189.065-.36.165-.5.293a1.29 1.29 0 0 0-.315.46 1.732 1.732 0 0 0 0 1.235c.074.175.19.333.34.467.139.127.308.227.495.293.217.064.445.089.673.073ZM100.736 48.9h1.855v.423h-2.422v-3.705h.581l-.014 3.282ZM104.521 49.323h-.581v-3.705h.581v3.705ZM106.681 45.636a.28.28 0 0 1 .089.068l2.483 2.792a.97.97 0 0 1 0-.132V45.604h.506v3.72h-.292a.277.277 0 0 1-.126-.021.322.322 0 0 1-.091-.07l-2.48-2.79v2.88h-.486v-3.705h.302c.033 0 .065.007.095.018ZM114.036 45.618v.408h-2.058v1.223h1.668v.393h-1.668v1.264h2.058v.408h-2.656v-3.696h2.656ZM53.162 22.742l25.795 6.324v22.158l-25.795-6.32V22.741Zm-1.655-1.888V45.98l29.1 7.135V27.992l-29.1-7.138Z" />
            <path d="M67.104 64.78 38 57.637V32.514l29.104 7.139v25.126Z" />
            <path
                d="m51.99 22.458 25.458 6.244-10.826 9.35-25.463-6.247 10.83-9.347Zm-.483-1.604L38 32.514l29.104 7.14 13.504-11.662-29.1-7.138ZM68.741 63.366l11.867-10.248-11.867-2.912v13.16Z" />
        </g>
    </defs>
    <defs>
        <g id="instagram">
            <path
                d="M224.1 141c-63.6 0-114.9 51.3-114.9 114.9s51.3 114.9 114.9 114.9S339 319.5 339 255.9 287.7 141 224.1 141zm0 189.6c-41.1 0-74.7-33.5-74.7-74.7s33.5-74.7 74.7-74.7 74.7 33.5 74.7 74.7-33.6 74.7-74.7 74.7zm146.4-194.3c0 14.9-12 26.8-26.8 26.8-14.9 0-26.8-12-26.8-26.8s12-26.8 26.8-26.8 26.8 12 26.8 26.8zm76.1 27.2c-1.7-35.9-9.9-67.7-36.2-93.9-26.2-26.2-58-34.4-93.9-36.2-37-2.1-147.9-2.1-184.9 0-35.8 1.7-67.6 9.9-93.9 36.1s-34.4 58-36.2 93.9c-2.1 37-2.1 147.9 0 184.9 1.7 35.9 9.9 67.7 36.2 93.9s58 34.4 93.9 36.2c37 2.1 147.9 2.1 184.9 0 35.9-1.7 67.7-9.9 93.9-36.2 26.2-26.2 34.4-58 36.2-93.9 2.1-37 2.1-147.8 0-184.8zM398.8 388c-7.8 19.6-22.9 34.7-42.6 42.6-29.5 11.7-99.5 9-132.1 9s-102.7 2.6-132.1-9c-19.6-7.8-34.7-22.9-42.6-42.6-11.7-29.5-9-99.5-9-132.1s-2.6-102.7 9-132.1c7.8-19.6 22.9-34.7 42.6-42.6 29.5-11.7 99.5-9 132.1-9s102.7-2.6 132.1 9c19.6 7.8 34.7 22.9 42.6 42.6 11.7 29.5 9 99.5 9 132.1s2.7 102.7-9 132.1z" />
        </g>
    </defs>
    <defs>
        <g id="twitter">
            <path
                d="M459.37 151.716c.325 4.548.325 9.097.325 13.645 0 138.72-105.583 298.558-298.558 298.558-59.452 0-114.68-17.219-161.137-47.106 8.447.974 16.568 1.299 25.34 1.299 49.055 0 94.213-16.568 130.274-44.832-46.132-.975-84.792-31.188-98.112-72.772 6.498.974 12.995 1.624 19.818 1.624 9.421 0 18.843-1.3 27.614-3.573-48.081-9.747-84.143-51.98-84.143-102.985v-1.299c13.969 7.797 30.214 12.67 47.431 13.319-28.264-18.843-46.781-51.005-46.781-87.391 0-19.492 5.197-37.36 14.294-52.954 51.655 63.675 129.3 105.258 216.365 109.807-1.624-7.797-2.599-15.918-2.599-24.04 0-57.828 46.782-104.934 104.934-104.934 30.213 0 57.502 12.67 76.67 33.137 23.715-4.548 46.456-13.32 66.599-25.34-7.798 24.366-24.366 44.833-46.132 57.827 21.117-2.273 41.584-8.122 60.426-16.243-14.292 20.791-32.161 39.308-52.628 54.253z" />
        </g>
    </defs>
    <defs>
        <g id="facebook">
            <path
                d="M279.14 288l14.22-92.66h-88.91v-60.13c0-25.35 12.42-50.06 52.24-50.06h40.42V6.26S260.43 0 225.36 0c-73.22 0-121.08 44.38-121.08 124.72v70.62H22.89V288h81.39v224h100.17V288z" />
        </g>
    </defs>
    <defs>
        <g id="link">
            <path
                d="M100.28 448H7.4V148.9h92.88zM53.79 108.1C24.09 108.1 0 83.5 0 53.8a53.79 53.79 0 0 1 107.58 0c0 29.7-24.1 54.3-53.79 54.3zM447.9 448h-92.68V302.4c0-34.7-.7-79.2-48.29-79.2-48.29 0-55.69 37.7-55.69 76.7V448h-92.78V148.9h89.08v40.8h1.3c12.4-23.5 42.69-48.3 87.88-48.3 94 0 111.28 61.9 111.28 142.3V448z" />
        </g>
    </defs>
    <defs>
        <g id="sobre">

            <path
                d="M14.5 0H1.50001C0.672854 0 0 0.672853 0 1.50001V10.5C0 11.3271 0.672854 12 1.50001 12H14.5C15.3271 12 16 11.3271 16 10.5V1.50001C16 0.672853 15.3271 0 14.5 0ZM14.5 0.999994C14.5679 0.999994 14.6325 1.01409 14.6916 1.0387L8 6.83838L1.30833 1.0387C1.36742 1.01412 1.43204 0.999994 1.49998 0.999994H14.5ZM14.5 11H1.50001C1.22414 11 0.999996 10.7759 0.999996 10.5V2.09521L7.67236 7.87792C7.76661 7.95944 7.8833 7.99999 8 7.99999C8.1167 7.99999 8.23339 7.95948 8.32764 7.87792L15 2.09521V10.5C15 10.7759 14.7759 11 14.5 11Z" />
        </g>
    </defs>
    <defs>
        <g id="cerrar">

            <path
                d="M310.6 361.4c12.5 12.5 12.5 32.75 0 45.25C304.4 412.9 296.2 416 288 416s-16.38-3.125-22.62-9.375L160 301.3L54.63 406.6C48.38 412.9 40.19 416 32 416S15.63 412.9 9.375 406.6c-12.5-12.5-12.5-32.75 0-45.25l105.4-105.4L9.375 150.6c-12.5-12.5-12.5-32.75 0-45.25s32.75-12.5 45.25 0L160 210.8l105.4-105.4c12.5-12.5 32.75-12.5 45.25 0s12.5 32.75 0 45.25l-105.4 105.4L310.6 361.4z" />
        </g>
    </defs>
    <defs>
        <g id="usuario">

            <path
                d="M9 9C10.6575 9 12 7.6575 12 6C12 4.3425 10.6575 3 9 3C7.3425 3 6 4.3425 6 6C6 7.6575 7.3425 9 9 9ZM9 10.5C6.9975 10.5 3 11.505 3 13.5V14.25C3 14.6625 3.3375 15 3.75 15H14.25C14.6625 15 15 14.6625 15 14.25V13.5C15 11.505 11.0025 10.5 9 10.5Z" />
        </g>
    </defs>
    <defs>
        <g id="tel">

            <path
                d="M11.996 9.12261L10.1579 8.91275C9.71641 8.86209 9.2822 9.01406 8.97102 9.32524L7.63945 10.6568C5.59144 9.61472 3.91251 7.94301 2.87041 5.88775L4.20922 4.54894C4.5204 4.23775 4.67237 3.80355 4.62171 3.3621L4.41185 1.53842C4.325 0.807499 3.70988 0.2575 2.97173 0.2575H1.71976C0.902004 0.2575 0.221746 0.937761 0.272403 1.75552C0.655953 7.93577 5.59868 12.8713 11.7717 13.2548C12.5894 13.3055 13.2697 12.6252 13.2697 11.8075V10.5555C13.2769 9.82459 12.7269 9.20946 11.996 9.12261Z" />
        </g>

    </defs>
    <defs>
        <g id="email">

            <path
                d="M15 3H3C2.175 3 1.5075 3.675 1.5075 4.5L1.5 13.5C1.5 14.325 2.175 15 3 15H15C15.825 15 16.5 14.325 16.5 13.5V4.5C16.5 3.675 15.825 3 15 3ZM14.7 6.1875L9.3975 9.5025C9.1575 9.6525 8.8425 9.6525 8.6025 9.5025L3.3 6.1875C3.1125 6.0675 3 5.865 3 5.6475C3 5.145 3.5475 4.845 3.975 5.1075L9 8.25L14.025 5.1075C14.4525 4.845 15 5.145 15 5.6475C15 5.865 14.8875 6.0675 14.7 6.1875Z"
                />
        </g>


    </defs>
    <defs>
        <g id="enviar">

          <path d="M24 0L0 13.5L7.66994 16.3407L19.5 5.25002L10.5017 17.3896L10.509 17.3923L10.5 17.3896V24.0001L14.8013 18.982L20.2501 21.0001L24 0Z" />

        </g>


    </defs>
</svg>




</svg>